<?xml version="1.0" encoding="UTF-8" standalone="no"?>
<!-- Created with Inkscape (http://www.inkscape.org/) -->

<svg
   version="1.1"
   id="svg1"
   width="831.02045"
   height="889.09937"
   viewBox="0 0 831.02045 889.09937"
   xmlns="http://www.w3.org/2000/svg"
   xmlns:svg="http://www.w3.org/2000/svg">
  <defs
     id="defs1" />
  <g
     id="g1"
     transform="translate(-98,-29.801853)">
    <path
       style="fill:#000000"
       d="M 129.11233,917.41945 C 116.472,914.02004 107.00748,906.6266 102.39282,896.54685 98.43381,887.89924 98,882.49902 98,841.86351 V 803 h 11.5 11.5 v 37.3185 c 0,41.87229 0.36954,44.76414 6.60185,51.66256 5.70909,6.31928 17.39493,8.79437 27.89815,5.9089 5.50706,-1.51292 11.85183,-8.25875 13.34496,-14.18853 C 169.61776,880.63238 170,866.51991 170,841.05718 V 803 h 11.25447 11.25447 l -0.0786,39.75 c -0.0433,21.8625 -0.43968,41.55 -0.88094,43.75 -3.10212,15.46626 -15.87954,27.85705 -32.34857,31.36973 -7.26661,1.54989 -23.55757,1.3061 -30.08845,-0.45028 z M 375,917.56903 c -18.76056,-5.22018 -29,-19.53437 -29,-40.54043 0,-19.80425 7.50462,-33.21586 22.82105,-40.78381 7.36032,-3.63679 7.88318,-3.74248 18.12893,-3.66452 12.56962,0.0956 19.32233,2.26658 26.38359,8.48215 C 418.23721,845.37877 424,855.594 424,859.96993 c 0,2.5771 -0.26471,2.69233 -9.56104,4.16208 l -9.56103,1.51159 -1.49201,-3.5718 c -4.18502,-10.01872 -15.57844,-14.04491 -24.86337,-8.78618 -6.16653,3.49255 -9.86892,11.53009 -9.90431,21.50131 -0.0169,4.74896 0.63631,9.6636 1.69963,12.78865 5.22937,15.36893 23.76383,18.15647 32.18111,4.83996 2.74119,-4.33667 3.11813,-4.57394 6.45609,-4.06376 1.94971,0.29799 6.35743,0.84888 9.79493,1.22418 7.19378,0.78541 7.64485,1.75428 4.27409,9.18039 -4.30503,9.48437 -11.5003,15.5981 -21.95559,18.65539 -6.41958,1.87719 -19.6016,1.95672 -26.0685,0.15729 z m 88.25067,-0.0605 c -7.59672,-2.12327 -12.86094,-5.06615 -17.67667,-9.88188 -15.29265,-15.29265 -15.50383,-45.92811 -0.43461,-63.04765 11.43694,-12.99305 35.54584,-16.41232 52.98632,-7.51485 14.31325,7.30208 22.8592,26.97005 20.13971,46.35025 -2.10401,14.994 -9.73567,25.72391 -22.51255,31.65203 -6.48189,3.00741 -8.31587,3.39405 -17.25287,3.6372 -6.52402,0.1775 -11.82466,-0.23792 -15.24933,-1.1951 z m 22.43319,-18.45197 c 10.65368,-4.83693 14.78157,-24.31702 7.9906,-37.7088 -2.89396,-5.70688 -4.93432,-7.72272 -9.92894,-9.8096 -13.24868,-5.53565 -25.41867,4.11863 -26.52416,21.04124 -0.81371,12.45603 4.20362,23.51664 12.26005,27.02705 4.33385,1.88838 11.35699,1.65002 16.20245,-0.54989 z m 69.16032,18.59846 c -15.74585,-5.8342 -23.59726,-17.64625 -24.60807,-37.02162 -0.68139,-13.06114 0.94665,-21.88783 5.40906,-29.32599 4.8395,-8.06671 8.84124,-11.92526 16.05113,-15.47682 11.42438,-5.62757 23.53475,-4.95666 33.43308,1.8522 L 590,841.03317 V 821.01658 801 h 11 11 v 58 58 h -11 -11 v -4.68984 -4.68984 l -3.05969,3.12953 c -5.13987,5.25718 -11.37102,7.69434 -20.44031,7.99474 -4.90858,0.16258 -9.41271,-0.25847 -11.65582,-1.08959 z m 21.37477,-17.69901 c 4.97447,-1.38154 9.66114,-5.48274 11.90139,-10.41462 1.403,-3.0887 1.84091,-6.5255 1.8577,-14.57948 0.0267,-12.83603 -2.02295,-18.08024 -8.47804,-21.69132 -4.68586,-2.62135 -13.11458,-3.04308 -17.29966,-0.86558 -7.03625,3.66096 -11.55355,12.6422 -11.61609,23.09501 -0.0755,12.61402 4.46433,20.97341 13.05301,24.03519 4.72919,1.68591 5.864,1.73103 10.58169,0.4208 z m 77.61742,17.12517 c -7.38518,-2.36185 -11.64434,-5.0643 -16.8047,-10.66263 -6.73866,-7.31058 -9.29946,-14.06035 -9.826,-25.89943 -0.76149,-17.12182 2.76531,-27.65008 12.53504,-37.41981 8.09902,-8.09902 14.49488,-10.53475 27.75929,-10.57155 7.46828,-0.0207 11.26586,0.45442 15,1.87672 15.57147,5.93106 23.14426,17.44187 24.24016,36.84554 l 0.55067,9.75 H 678.64541 650 v 3.03212 c 0,3.54061 2.34194,9.5677 4.78814,12.32251 2.42146,2.72696 9.10645,5.59752 13.09584,5.62341 6.21817,0.0403 11.07566,-2.12529 15.15063,-6.7547 l 3.887,-4.41587 9.56815,0.71736 c 10.72768,0.80428 10.50859,0.50541 6.37579,8.69737 -4.30534,8.53395 -12.17022,14.70896 -22.10156,17.35275 -7.32921,1.95109 -20.00994,1.71855 -26.92762,-0.49379 z m 30.76406,-53.53706 c -1.20962,-4.8195 -2.40511,-7.0839 -5.23287,-9.91166 C 675.77979,850.04468 673.07762,849 667.38524,849 c -8.30202,0 -14.64909,5.3946 -16.76596,14.25 L 649.9619,866 h 17.62746 17.62746 z M 213,875 v -42 h 11 11 l 0.15753,3.75 c 0.0866,2.0625 0.13665,4.3125 0.11112,5 -0.0696,1.87391 0.72637,1.52605 2.93608,-1.28314 1.09592,-1.39323 4.31068,-3.75357 7.14392,-5.2452 4.57513,-2.40868 6.214,-2.70806 14.65135,-2.67642 7.54225,0.0283 10.46605,0.47816 14.1878,2.183 6.60669,3.02636 12.18725,8.9855 14.6974,15.69447 1.98309,5.30028 2.1148,7.54959 2.1148,36.1148 V 917 h -11 -11 l -0.022,-26.25 c -0.0195,-23.32489 -0.22664,-26.69573 -1.85877,-30.25 -2.24465,-4.88815 -4.45722,-6.87385 -9.44425,-8.47587 -8.07845,-2.5951 -17.24414,1.30704 -20.31099,8.64706 C 236.32829,863.15005 236,870.3215 236,890.46788 V 917 H 224.5 213 Z m 97,0 v -42 h 11 11 v 42 42 h -11 -11 z m 415,-15 v -57 h 36.5 36.5 v 9.5 9.5 H 772.5 747 v 14 14 h 21.5 21.5 v 10 10 H 768.5 747 v 23.5 23.5 h -11 -11 z m 89,15 v -42 h 11 11 v 42 42 h -11 -11 z m 34.63057,40.75 c 0.41173,-0.6875 6.51329,-9.85937 13.55902,-20.38193 C 869.23531,884.8455 875,875.77822 875,875.21855 c 0,-0.55966 -1.624,-3.42529 -3.60888,-6.36806 C 864.2661,858.28699 849.86313,835.8069 849.32999,834.41756 848.87829,833.24044 850.91987,833 861.36657,833 h 12.58056 l 7.63969,13.01919 7.6397,13.01919 7.94904,-13.01919 L 905.1246,833 h 11.54469 c 9.61275,0 11.45264,0.23987 10.99464,1.43341 -0.30253,0.78838 -6.39783,10.18829 -13.54511,20.8887 l -12.99505,19.45528 10.4889,15.86131 c 5.76889,8.72371 12.04564,18.2238 13.94833,21.1113 l 3.45943,5.25 h -12.27578 -12.27577 l -8.414,-13.53029 -8.41399,-13.5303 -1.97432,3.2803 c -1.08587,1.80416 -4.86838,7.89279 -8.40557,13.53029 L 870.82974,917 h -11.47389 c -8.91169,0 -11.30672,-0.27913 -10.72528,-1.25 z M 317.5,824.27666 c -6.69307,-1.70735 -10.73581,-9.00209 -8.59085,-15.50138 1.81928,-5.51248 5.23037,-8.03938 11.56115,-8.56437 5.20369,-0.43153 5.66674,-0.27387 9.00769,3.06708 3.02286,3.02286 3.52201,4.18326 3.52201,8.18775 0,2.56616 -0.44908,5.50486 -0.99797,6.53046 -2.2648,4.23182 -9.7779,7.48555 -14.50203,6.28046 z M 816.4,820.6 c -2.82811,-2.82811 -3.39889,-4.13168 -3.39341,-7.75 0.0115,-7.59508 4.95291,-12.74611 12.29307,-12.81456 C 832.67798,799.96663 838,804.98033 838,812 c 0,7.31504 -5.29023,12 -13.55034,12 -3.95452,0 -5.15798,-0.50832 -8.04966,-3.4 z M 402.5,765.87565 C 355.89105,762.87449 315.59377,754.45277 292.76665,742.9425 260.61359,726.72977 239.5604,700.30209 230.0275,664.18721 c -1.12921,-4.27798 -1.23683,-4.36014 -13.33295,-10.17972 -46.86438,-22.54695 -77.97248,-56.9971 -90.18506,-99.87391 -9.79611,-34.39288 -8.23051,-79.57188 4.04016,-116.58831 8.13215,-24.53194 20.26177,-41.89447 33.95035,-48.59704 4.2982,-2.10459 6.40361,-2.44661 15,-2.4367 12.20911,0.0141 17.16775,2.04504 25.5,10.44426 6.4913,6.54348 9.80025,12.83062 11.27063,21.41466 1.26887,7.4076 0.25684,12.09234 -6.29272,29.12955 -13.57637,35.31583 -15.30419,64.49055 -5.37247,90.71591 4.27159,11.27943 18.74269,32.82098 19.87327,29.58318 0.24949,-0.7145 1.17221,-5.57409 2.05047,-10.79909 2.20126,-13.09574 8.53507,-37.83014 13.82794,-54 12.02045,-36.72283 28.9267,-67.03463 50.02488,-89.69135 l 6.69666,-7.19135 -6.13992,-8.28091 c -3.37695,-4.5545 -7.89967,-11.78089 -10.05049,-16.05865 -2.15081,-4.27776 -4.24305,-7.76988 -4.64941,-7.76028 -1.1572,0.0273 -16.63402,2.67458 -28.73884,4.91565 -12.64709,2.34146 -17.60284,2.56405 -19.3,0.86689 -1.9362,-1.9362 -1.39374,-5.63317 1.05,-7.15592 2.10019,-1.30867 19.855,-5.04322 36.5,-7.67742 3.9875,-0.63105 7.25,-1.22952 7.25,-1.32994 0,-0.10042 -1.07942,-4.44727 -2.39871,-9.65965 -1.31929,-5.21239 -2.72222,-12.51928 -3.11762,-16.23754 -0.61619,-5.79458 -1.02356,-6.82519 -2.85129,-7.21347 C 263.45957,330.2769 253.5,329.56738 242.5,328.94935 c -14.03571,-0.7886 -20.67098,-1.5519 -22.25,-2.55958 -2.79942,-1.7865 -2.97732,-5.93016 -0.31574,-7.35459 2.3538,-1.25971 16.24149,-1.28804 33.04525,-0.0674 6.86374,0.49859 12.66703,0.71901 12.89622,0.48982 0.22919,-0.22918 0.80385,-4.99525 1.27704,-10.59126 1.75719,-20.78112 8.67267,-41.12601 19.79727,-58.24231 l 6.41881,-9.87598 -1.8329,-19.62402 c -3.58512,-38.38436 -3.13718,-72.08604 1.16315,-87.51078 3.32478,-11.92558 11.72504,-16.67207 23.45426,-13.25264 11.50898,3.35522 37.68697,18.08396 61.07904,34.3654 5.35282,3.7257 12.10282,8.42766 15,10.44881 l 5.2676,3.67482 7.5,-2.46554 c 20.28861,-6.66965 41.09912,-10.14478 66,-11.0213 32.97472,-1.16072 66.91517,3.50203 94.97435,13.04762 l 7.47436,2.54274 12.52564,-6.84922 c 30.46052,-16.6563 56.42682,-28.98541 69.64385,-33.06773 3.62586,-1.11992 8.72852,-2.03621 11.33925,-2.03621 21.51856,0 24.578,36.51457 9.40403,112.23753 l -1.7509,8.73754 4.59169,9.26246 c 9.01363,18.1825 13.47087,35.6232 14.50653,56.76247 l 0.56341,11.5 h 18.211 c 19.88618,0 21.89026,0.50684 21.31735,5.39123 -0.46385,3.95453 -3.96869,5.07743 -15.89968,5.09403 -5.82952,0.008 -14.00848,0.30294 -18.17548,0.65518 l -7.57635,0.64043 -0.69385,5.10957 c -0.38161,2.81026 -1.57166,7.96555 -2.64455,11.4562 -1.07289,3.49065 -1.80669,6.48267 -1.63068,6.64893 0.17602,0.16627 7.29503,1.49143 15.82003,2.94482 17.28197,2.94631 22.32344,4.81092 22.83749,8.44652 0.66391,4.69549 -4.23942,5.1877 -21.98812,2.20724 C 697.60722,375.04593 690.25,373.90551 687.5,373.55988 l -5,-0.62842 -4.64548,9.78427 c -9.17871,19.33212 -26.07521,38.76321 -44.18908,50.81775 -4.76599,3.1717 -8.66544,6.32416 -8.66544,7.00547 0,1.28055 7.88868,24.67137 8.54413,25.3343 0.20297,0.20529 11.97607,-5.70725 26.16245,-13.13897 53.42114,-27.98535 72.25498,-36.51507 99.11284,-44.88755 20.65653,-6.43932 48.34839,-9.36825 65.23219,-6.89951 10.81095,1.58077 12.15037,2.3064 11.75679,6.36922 -0.27922,2.88239 -1.63284,4.06152 -14.3084,12.46398 -7.7,5.10424 -26.15,16.78084 -41,25.94801 -27.93244,17.2432 -50.25475,31.26294 -73.43145,46.11933 l -13.43146,8.60963 3.93146,0.84405 c 2.1623,0.46423 8.51162,1.95205 14.10959,3.30628 l 10.17815,2.46222 4.82185,-2.95827 c 19.03157,-11.6761 46.22568,-13.34682 73.23475,-4.49931 33.45318,10.95845 53.84584,31.14506 60.70488,60.0915 1.62424,6.8546 2.46191,25.52284 1.20255,26.79971 -0.81872,0.8301 -20.44329,0.7643 -34.37241,-0.11525 l -10.05208,-0.63474 0.39375,-8.62679 c 0.21656,-4.74474 -0.0589,-9.79205 -0.61213,-11.21625 l -1.00587,-2.58946 -20.83579,-0.68616 C 783.8761,562.25752 765.95,561.29183 755.5,560.48894 c -10.45,-0.8029 -20.00492,-1.46636 -21.23315,-1.47438 -2.6441,-0.0172 -5.16582,4.51714 -10.58253,19.02877 -7.08848,18.99035 -9.54179,40.35863 -6.14198,53.49657 5.28764,20.43311 24.66763,34.7907 46.95766,34.7884 17.232,-0.002 26.74367,-6.15558 37.79679,-24.45353 l 1.58581,-2.62523 7.3087,1.93112 c 17.41563,4.60158 29.3595,8.05229 30.01979,8.67302 1.059,0.99557 -6.23325,16.81612 -10.95831,23.77409 -9.48508,13.9674 -26.6879,25.23602 -44.18961,28.94619 -7.78481,1.65029 -23.96119,1.82928 -33.06317,0.36585 -9.38284,-1.50859 -26.20413,-7.35827 -35.74324,-12.42988 -17.44977,-9.27742 -28.49597,-20.23814 -36.2082,-35.92799 -6.35131,-12.92118 -8.29898,-22.05354 -8.33504,-39.08194 -0.0379,-17.87867 4.65856,-41.86966 10.84544,-55.40228 1.3584,-2.97125 2.25915,-5.61294 2.00166,-5.87043 -0.25748,-0.25749 -7.80146,-1.30714 -16.76439,-2.33256 -8.96292,-1.02543 -18.20873,-2.14733 -20.54623,-2.49311 l -4.25,-0.62871 -0.0155,19.36355 c -0.0227,28.43039 -2.32888,61.20997 -6.076,86.36354 -1.06513,7.15 -2.17123,13.74221 -2.45801,14.64935 -0.39496,1.24937 1.54685,2.7496 8.00728,6.18635 25.95254,13.80597 41.82291,35.12055 40.2977,54.12149 -1.11712,13.91697 -10.78488,23.22046 -29.2555,28.15318 -5.78511,1.54496 -10.5579,1.86305 -27.5,1.83282 -23.02912,-0.0411 -34.45309,-1.71971 -54,-7.93463 C 556.38402,746.22552 554.22817,746 520.34099,746 h -31.56057 l -5.64021,5.16765 c -9.78999,8.96975 -22.06743,13.17668 -43.26421,14.82473 -13.97192,1.08632 -18.93282,1.07083 -37.376,-0.11673 z m 37.38205,-16.53927 5.38205,-0.64624 -0.56084,-6.6897 c -0.30847,-3.67933 -1.71789,-9.53719 -3.13205,-13.01747 C 440.15704,725.50269 439,721.84314 439,720.85064 c 0,-2.58013 4.43385,-5.20955 7.49082,-4.4423 4.64341,1.16542 10.40448,12.92409 11.99384,24.48011 0.69565,5.058 0.83238,5.24879 3.31509,4.62567 9.7979,-2.45911 13.67226,-7.02313 12.69208,-14.95135 -1.55167,-12.55087 -12.17152,-25.47051 -26.65055,-32.4219 -10.86963,-5.21851 -17.56068,-6.8968 -33.20164,-8.32782 -13.4264,-1.22841 -15.12001,-1.89448 -16.24838,-6.39026 -2.09771,-8.35798 10.54237,-11.45282 32.33839,-7.91784 29.72807,4.82145 53.16956,24.27531 58.34823,48.42259 L 490.16573,729 h 32.85176 c 35.79105,0 38.97005,0.34307 55.48251,5.98761 12.38766,4.23453 22.73739,6.78772 30.86496,7.61412 6.43357,0.65415 6.831,0.57863 6.32465,-1.20186 -0.29716,-1.04493 -0.82797,-3.47487 -1.17957,-5.39987 -0.3516,-1.925 -1.36674,-5.61706 -2.25586,-8.20458 C 610.0547,721.39458 611.46494,718 616.32357,718 c 1.96238,0 4.04078,0.74512 4.98325,1.78654 2.46445,2.72318 5.39377,10.01464 6.81502,16.96346 l 1.27831,6.25 h 7.93761 7.9376 l -0.64393,-5.47883 c -0.35416,-3.01336 -1.5711,-7.83108 -2.70431,-10.70606 -1.58451,-4.01995 -1.82188,-5.75066 -1.02776,-7.49358 1.27171,-2.79109 5.4153,-3.95482 8.72011,-2.44905 3.23742,1.47507 7.15246,9.99183 7.9882,17.37752 0.7516,6.64201 1.82543,7.12183 6.53035,2.91799 2.68711,-2.40093 3.24142,-3.69834 3.64155,-8.52338 0.40686,-4.9063 0.0408,-6.56723 -2.65394,-12.04099 -5.9264,-12.03823 -22.25836,-24.66408 -38.88901,-30.06418 -7.88183,-2.55929 -8.57705,-3.61005 -7.92643,-11.98014 0.3018,-3.88261 1.4545,-12.6843 2.56157,-19.5593 3.98028,-24.71804 7.2651,-69.82728 7.02705,-96.5 -0.15285,-17.12717 0.58329,-16.5968 -12.39881,-8.93306 -6.05,3.5715 -17.12942,10.09581 -24.62094,14.49846 l -13.62093,8.00482 1.5169,4.21489 c 2.05101,5.699 2.72047,20.01112 1.26415,27.02614 -2.65002,12.76509 -12.38281,26.74609 -24.03659,34.52818 C 549.93154,641.89353 536.5394,647 531.97826,647 c -1.45829,0 -4.53727,1.67117 -7.32836,3.97759 -16.17321,13.36477 -40.02894,15.95836 -58.88711,6.40221 -6.63259,-3.36099 -16.68962,-12.99204 -20.08932,-19.23841 -5.74739,-10.55985 -7.12144,-27.18189 -3.27856,-39.66107 2.25296,-7.31615 8.33532,-16.80298 15.14523,-23.62243 11.161,-11.17663 21.94695,-16.79615 36.25307,-18.88798 8.13469,-1.18945 8.32606,-1.28291 11.21022,-5.4749 3.84551,-5.58925 7.88681,-8.90577 13.43301,-11.02389 6.16246,-2.35346 19.14771,-1.67893 25.928,1.34685 l 4.86444,2.17081 6.79416,-3.57023 c 3.7368,-1.96363 8.57697,-5.09625 10.75596,-6.96137 4.23119,-3.62174 7.96445,-10.14134 6.56718,-11.4686 C 572.54474,520.22729 558.1986,516.2724 522.86309,507.0716 505.99809,502.68023 505,502.50651 505,503.96249 c 0,0.52937 -0.93815,3.46993 -2.08479,6.53458 -4.48303,11.98198 -17.58871,21.89903 -30.71202,23.23975 -3.45879,0.35337 -7.08056,1.48835 -9.20319,2.88409 -7.84133,5.15607 -20.78232,5.94887 -29.50896,1.80782 -2.38482,-1.13168 -3.98975,-1.43259 -4.20451,-0.78833 -0.19103,0.57311 -2.54508,4.60097 -5.23122,8.95081 -10.31481,16.70345 -24.5438,30.25423 -39.72403,37.83064 -10.4879,5.23448 -18.15,7.03692 -30.00795,7.05911 -8.79394,0.0164 -10.56028,-0.26634 -13,-2.08129 -3.39042,-2.52219 -4.04564,-5.64835 -1.8774,-8.95749 1.46941,-2.2426 2.2349,-2.44218 9.36702,-2.44218 13.99589,0 24.71863,-3.97217 38.25289,-14.17055 8.00227,-6.02988 16.6918,-15.54786 21.95585,-24.04907 l 2.92244,-4.71962 -6.97607,-4.5128 c -9.85534,-6.37539 -13.01148,-12.18556 -9.41136,-17.32545 1.93758,-2.76627 5.04201,-2.82353 8.9433,-0.16494 4.63156,3.15623 12.64011,7.13565 13.21118,6.56458 0.28177,-0.28177 -0.063,-4.37923 -0.76614,-9.10547 -1.21086,-8.13885 -1.17189,-8.73652 0.73715,-11.30492 C 421.76417,493.71992 429,496.34548 429,503.3185 c 0,6.35668 2.9721,13.76839 7.40071,18.45559 3.69104,3.90657 4.88679,4.54712 9.27548,4.96882 4.52258,0.43456 5.37969,0.17897 8.37521,-2.49753 3.01066,-2.69002 3.37752,-3.61765 3.75112,-9.48501 0.26569,-4.17253 -0.16232,-8.48622 -1.19421,-12.03578 C 453.86663,493.29352 454.7642,489 459.47749,489 c 6.15292,0 10.79864,9.64548 10.93613,22.70567 l 0.0864,8.20567 2.5,-0.59757 c 7.89448,-1.887 13.63935,-7.20582 16.48038,-15.25817 5.97431,-16.93299 -7.43424,-41.97931 -27.98642,-52.27685 -10.72492,-5.37365 -15.05833,-6.27939 -29.99396,-6.26914 -11.61144,0.008 -15.3618,0.40218 -21.98185,2.31055 -10.59713,3.05484 -22.71783,8.82636 -32.24561,15.35441 -10.71649,7.3425 -27.55097,24.38199 -35.39441,35.82543 -3.58126,5.225 -7.66097,10.05929 -9.06602,10.74286 -3.79724,1.84741 -8.36976,-0.0352 -9.75802,-4.01754 -1.42228,-4.07997 1.31925,-9.80079 10.65084,-22.22532 25.05078,-33.35383 58.23667,-52.81682 93.99904,-55.12891 9.44914,-0.6109 11.27885,-1.0385 15.26596,-3.56758 11.64298,-7.38532 31.53886,-10.49764 47.06521,-7.36242 22.66881,4.57748 36.91581,18.63025 40.10567,39.55891 l 1.14313,7.5 36.31394,8.94159 36.31394,8.94159 4.91795,-2.30345 c 2.70488,-1.2669 6.07943,-3.26561 7.49901,-4.44159 L 618.90983,473.5 612.45492,454.58714 C 608.90471,444.18506 606,434.84329 606,433.82763 c 0,-1.92351 1.45814,-3.05322 16.75426,-12.98057 C 633.66332,413.76697 643.57118,404.40081 651.15404,394 656.6217,386.50045 664,374.00249 664,372.24049 c 0,-0.514 -5.17361,-1.2118 -11.49691,-1.55068 -6.3233,-0.33887 -12.34535,-1.07021 -13.38235,-1.62519 -2.78215,-1.48896 -3.37361,-4.02975 -1.57653,-6.77243 l 1.58957,-2.42601 14.18311,0.68689 c 7.80071,0.37779 14.61147,0.7454 15.13501,0.81691 0.9059,0.12374 4.52444,-11.06133 5.89911,-18.23442 l 0.64477,-3.36445 -17.04057,0.73081 c -15.52031,0.66561 -17.21519,0.57278 -18.99789,-1.04054 C 637.8808,338.48713 637,336.87014 637,335.86807 c 0,-3.57218 3.91953,-4.65869 21.5,-5.9599 9.55788,-0.70742 17.32163,-1.72884 17.73469,-2.33321 1.16332,-1.70211 0.89091,-9.51142 -0.77695,-22.27374 -1.95822,-14.98408 -7.76872,-32.74054 -14.59833,-44.61143 -3.7123,-6.45253 -4.94067,-9.53002 -4.59018,-11.5 0.2632,-1.47939 2.09654,-10.56479 4.07407,-20.18979 5.44495,-26.50152 6.98736,-39.9478 7.07731,-61.69813 0.0583,-14.09508 -0.25225,-19.53027 -1.16828,-20.44767 -0.9977,-0.9992 -2.90095,-0.58353 -9.5,2.07479 -11.46049,4.61667 -47.16399,22.34829 -65.72302,32.64037 -9.94204,5.51345 -16.1959,8.41065 -17.5,8.10717 -1.11612,-0.25974 -6.75431,-2.12468 -12.52931,-4.14431 -25.73679,-9.00066 -45.86453,-12.02072 -80,-12.00356 -31.99871,0.0161 -49.06669,2.33317 -73.63978,9.99705 C 401.23333,185.43657 395.54313,187 394.71531,187 c -0.82782,0 -5.03992,-2.53929 -9.36022,-5.64286 -21.74797,-15.6231 -46.9046,-31.59264 -60.70317,-38.53464 -9.47998,-4.76934 -12.90453,-5.90245 -14.62508,-4.83909 -1.92884,1.19209 -3.98144,19.91774 -4.00274,36.51659 -0.0213,16.62951 1.16284,34.96474 3.59905,55.72625 l 1.61068,13.72626 -7.57093,11.27374 c -7.50106,11.1697 -11.93938,20.33321 -15.07864,31.13189 -2.06538,7.10469 -4.57069,23.61768 -4.57836,30.17705 l -0.006,5.03519 9.75,1.28688 c 15.28774,2.0178 35.5265,6.1377 38,7.73545 2.60114,1.68021 2.97612,5.55977 0.71849,7.43344 -1.25076,1.03804 -5.60456,0.68921 -23.75,-1.90286 -12.22017,-1.74564 -22.55599,-3.16251 -22.96849,-3.14859 -0.4125,0.0139 -0.75,1.40103 -0.75,3.08248 0,6.36055 5.46975,24.95457 7.33153,24.92301 0.64266,-0.0109 4.09347,-0.43788 7.66847,-0.94885 14.65108,-2.09406 27.01365,-2.97665 29.33456,-2.09424 1.31563,0.5002 2.64517,1.87738 2.95453,3.06039 1.09543,4.18893 -1.77404,5.35688 -19.29268,7.85263 -9.07302,1.29257 -16.66216,2.50832 -16.86475,2.70167 -0.58991,0.56303 6.80788,13.57038 10.20785,17.94821 9.83297,12.66098 20.78258,22.51775 32.16049,28.95065 7.05157,3.98686 8.5,5.46618 8.5,8.68128 0,1.91732 -0.813,3.35466 -2.53608,4.48367 -2.36532,1.54981 -2.95452,1.54834 -8.75,-0.0218 -3.45205,-0.93523 -10.65121,-4.34964 -16.19736,-7.68205 l -9.98344,-5.99856 -7.51656,8.17552 C 278.43788,451.7345 260.69747,487.5906 249.3873,532.46059 237.84747,578.24164 236.29804,618.09608 244.68162,653.5 256.24134,702.31677 285.44711,729.35441 338,739.89076 358.18278,743.93721 397.4877,749 408.71956,749 c 3.35708,0 3.42262,-0.0777 2.74003,-3.25 -0.38462,-1.7875 -1.77466,-6.98408 -3.08897,-11.54796 -2.57182,-8.9305 -2.23156,-11.47663 1.70049,-12.72461 6.19476,-1.96614 10.5816,4.43591 13.54865,19.77257 l 1.69278,8.75 4.59373,-0.009 c 2.52655,-0.005 7.01565,-0.2995 9.97578,-0.65493 z m 27.3481,-368.82747 c -6.77468,-1.90015 -9.74313,-3.48795 -15.01464,-8.03121 -7.84309,-6.75957 -10.6012,-15.86843 -5.76447,-19.03758 3.48502,-2.28347 5.76435,-1.16106 10.57121,5.20557 5.9501,7.88085 12.41591,10.78173 22.57794,10.12957 5.89739,-0.37847 8.32849,-1.06158 12.11964,-3.40546 8.33978,-5.1561 12.3597,-14.38007 6.86773,-15.75847 -3.44273,-0.86407 -10.41372,-9.16777 -11.1957,-13.33608 -0.87295,-4.6532 1.58165,-9.6818 5.82041,-11.92397 4.12735,-2.18324 20.44779,-3.05896 26.52178,-1.4231 2.32874,0.62718 5.47874,2.21095 7,3.51949 6.02465,5.18218 1.97016,16.98921 -7.70303,22.43191 -3.88399,2.18536 -4.17935,2.63428 -3.61856,5.5 1.70083,8.69147 11.76104,14.89802 21.33754,13.16398 2.88714,-0.52278 5.14246,-2.15907 9.80162,-7.11129 6.86822,-7.30024 10.18269,-8.29359 13.05351,-3.91217 1.54102,2.3519 1.53254,2.83088 -0.12702,7.17639 -2.13984,5.60308 -8.99524,12.72759 -14.76899,15.34874 -8.94852,4.06242 -22.69902,1.66213 -32.25216,-5.62994 C 509.99611,371.53688 507.74228,370 507.44844,370 c -0.29384,0 -2.87745,1.75441 -5.74135,3.8987 -2.8639,2.14428 -7.45709,4.67421 -10.20709,5.62206 -6.86549,2.36636 -17.77274,2.81045 -24.26985,0.98815 z M 420.59971,326.9534 c -4.71839,-4.1428 -7.11309,-10.75574 -7.04454,-19.4534 0.074,-9.38359 1.84038,-14.92944 6.26656,-19.67454 4.82143,-5.16883 9.71356,-5.96834 16.14083,-2.63787 6.91173,3.58152 9.53744,9.5866 9.53744,21.81241 0,8.27699 -0.32185,10.07434 -2.5,13.9613 -5.22948,9.33211 -15.47481,12.07275 -22.40029,5.9921 z m 141,0 c -4.85781,-4.26521 -7.08141,-10.68316 -7.0864,-20.4534 -0.003,-6.72046 0.43909,-8.90394 2.76674,-13.65165 3.09451,-6.31189 6.18992,-8.83344 11.76109,-9.58069 12.15787,-1.63072 21.20002,16.07131 16.48822,32.27934 -3.02154,10.39374 -7.49982,14.453 -15.9449,14.453 -3.60591,0 -5.21345,-0.61336 -7.98475,-3.0466 z m 61.55903,-103.9752 c -6.2377,-6.01185 -11.1877,-11.34301 -11,-11.84704 C 612.73629,209.58023 641.95675,182 643.02237,182 c 0.58223,0 0.78498,1.56941 0.48447,3.75 -2.46413,17.88049 -6.70712,45.60835 -7.1595,46.78723 -0.30872,0.80452 -0.85067,1.44226 -1.20433,1.41719 -0.35365,-0.0251 -5.74658,-4.96437 -11.98427,-10.97622 z m -291.50221,-3.60515 c -0.36109,-7.5291 -0.64035,-20.25562 -0.62057,-28.28116 l 0.036,-14.59189 2.48871,3 c 1.36879,1.65 7.43104,10.28371 13.47166,19.18601 l 10.98295,16.18602 -12.03594,8.81398 c -6.61976,4.8477 -12.40276,8.94051 -12.8511,9.09515 -0.44834,0.15464 -1.1106,-5.87902 -1.47168,-13.40811 z M 500.75,647.32997 c 3.9875,-0.93261 7.25,-2.04223 7.25,-2.46581 0,-1.18275 -7.05274,-2.93602 -23.40972,-5.81952 -15.26367,-2.69077 -22.826,-13.95824 -19.64675,-29.27261 0.86047,-4.1449 3.08683,-8.51024 8.54517,-16.75496 6.4592,-9.75652 9.56316,-16.29855 8.32197,-17.53974 -0.20881,-0.20881 -2.33088,0.61087 -4.71571,1.82151 -6.56524,3.33279 -15.5754,12.90035 -19.32875,20.5245 -2.95659,6.00569 -3.26621,7.48974 -3.26621,15.65563 0,7.84152 0.36366,9.76156 2.78131,14.68469 5.16432,10.51627 15.02303,17.74172 26.90468,19.71845 7.90704,1.31548 8.69043,1.28937 16.56401,-0.55214 z M 222.97619,628.89093 c -0.5914,-5.16501 -0.989,-15.98674 -0.88354,-24.04828 l 0.19173,-14.65734 -7.89612,-7.91738 c -14.25008,-14.28843 -23.97786,-30.9862 -29.16518,-50.06212 -2.4435,-8.98573 -2.63848,-11.18962 -2.6281,-29.70581 0.0101,-18.03752 0.27078,-21.12843 2.6565,-31.5 1.45491,-6.325 5.13714,-18.925 8.18272,-28 6.00579,-17.89557 6.47779,-21.41616 3.68696,-27.5 -3.59321,-7.83297 -10.36185,-12.5 -18.12888,-12.5 -27.70574,0 -50.90214,78.41504 -39.51061,133.56496 8.77601,42.4874 34.73643,76.31678 74.80709,97.48217 5.03768,2.66091 9.29516,4.70228 9.46106,4.53638 0.16591,-0.1659 -0.18223,-4.52756 -0.77363,-9.69258 z m 314.02823,1.51512 c 2.95208,-0.87668 8.00118,-3.26851 11.22022,-5.31519 21.89979,-13.92398 24.6167,-42.37759 5.83939,-61.15489 -12.13561,-12.13562 -30.13051,-15.79034 -36.99893,-7.51441 -1.11153,1.33931 -0.68064,1.81431 3.126,3.44603 13.40253,5.745 19.70705,24.13241 8.27431,24.13241 -1.36057,0 -3.73963,-1.88244 -6.46721,-5.11718 C 517.3002,573.31126 513.04414,571 507.48246,571 c -6.81109,0 -12.49273,4.88073 -12.47308,10.71482 0.012,3.57462 4.77624,11.80615 9.39428,16.23135 4.02352,3.85551 4.75951,8.11106 1.94135,11.22509 -3.44069,3.80192 -9.30424,1.66655 -15.71684,-5.7237 l -3.42534,-3.94756 -1.23846,2.69849 c -2.62673,5.72341 4.9041,17.70993 14.75302,23.48178 10.35857,6.07052 25.23488,8.00791 36.28703,4.72578 z m 41.60709,-75.23032 c 21.83989,-12.12481 45.96161,-26.20549 59.46584,-34.71224 8.48246,-5.34338 22.84765,-14.31817 31.92265,-19.94397 9.075,-5.62581 27.8658,-17.38167 41.75733,-26.12413 13.89152,-8.74246 35.68072,-22.42039 48.42044,-30.39539 27.64782,-17.3074 43.02078,-27.03308 45.50181,-28.78666 1.50929,-1.06676 -0.24633,-1.19165 -10.27214,-0.73076 -23.61722,1.08569 -54.78973,11.17446 -91.81424,29.71507 -27.83704,13.93983 -95.1074,50.69325 -104.41871,57.04955 -5.49049,3.74805 -7.71601,7.44184 -9.67615,16.05992 -3.1613,13.89916 -10.93549,24.33354 -22.49356,30.19046 l -5.2608,2.66585 4.33622,4.41828 c 2.38492,2.43006 4.6302,4.41829 4.98952,4.41829 0.35932,0 3.75312,-1.72092 7.54179,-3.82427 z m 32.51579,-36.27176 c -5.04665,-4.70167 -5.03708,-11.11921 0.0229,-15.37694 4.43855,-3.73479 9.14765,-3.42914 13.44976,0.87297 3.6379,3.6379 4.2381,6.66647 2.20531,11.12794 -2.4368,5.34821 -11.47263,7.29394 -15.67801,3.37603 z m 197.42537,31.01081 c 1.21199,-1.96104 -9.79424,-11.48732 -15.91987,-13.77921 -13.40464,-5.01532 -29.3983,-5.32689 -38.4187,-0.74844 -5.72108,2.90383 -13.48681,9.36259 -12.72984,10.58741 0.5197,0.84089 23.72165,2.77238 47.51574,3.95554 8.525,0.4239 16.26094,0.83805 17.19098,0.92033 0.93004,0.0823 1.9928,-0.33876 2.36169,-0.93563 z M 695.38128,534.25 c 1.93934,-3.1625 5.55647,-8.20296 8.03804,-11.20102 2.48158,-2.99807 4.352,-5.61099 4.15649,-5.8065 C 706.98118,516.64785 681.75916,511 679.6983,511 c -1.05837,0 -7.16096,3.29557 -13.5613,7.32349 -6.40035,4.02791 -14.4495,9.01049 -17.887,11.0724 -3.4375,2.0619 -6.25,4.13052 -6.25,4.59692 0,0.4664 2.8125,1.1384 6.25,1.49332 3.4375,0.35493 13.45,1.45828 22.25,2.45189 23.16597,2.61568 20.80064,2.96628 24.88128,-3.68802 z M 580.93583,503.12579 c 1.08706,-2.13081 3.40271,-5.07431 5.14589,-6.5411 1.74318,-1.46679 3.00041,-2.79756 2.79385,-2.95728 -0.20656,-0.15972 -14.32557,-3.75533 -31.37557,-7.99026 -17.05,-4.23492 -33.31081,-8.40609 -36.13513,-9.26926 l -5.13513,-1.56941 -0.43038,-9.14924 c -0.52876,-11.24053 -3.514,-18.23787 -10.61408,-24.87917 -6.93017,-6.48236 -14.43235,-9.17473 -25.68528,-9.21788 -4.95,-0.019 -11.475,0.60705 -14.5,1.39119 -5.2746,1.36728 -5.37705,1.45562 -2.5,2.15566 10.69036,2.60115 28.86642,9.01486 32.54058,11.48245 8.4992,5.70813 11.73406,16.30114 8.88407,29.09222 -0.84414,3.78862 -0.77051,5.68121 0.34243,8.8026 l 1.41778,3.97632 10.90757,2.91596 c 29.98408,8.01576 59.0937,15.48187 60.63725,15.55239 1.04482,0.0477 2.51225,-1.45495 3.70615,-3.79519 z M 370.05357,113.33115 c -5.68104,-2.08102 -13.24322,-9.62492 -15.40752,-15.370298 -1.43326,-3.804727 -10.75841,-50.045741 -10.22112,-50.683869 0.49506,-0.587982 14.93447,-3.250919 15.35381,-2.831574 0.26434,0.264339 2.25751,10.284761 4.42926,22.267604 2.17175,11.982843 4.7713,23.661533 5.77678,25.952645 2.41975,5.513705 6.15112,7.874652 12.14748,7.686052 C 390.73472,100.08115 396,94.763774 396,86.34677 c 0,-2.118035 -1.57231,-12.850027 -3.49403,-23.848871 -1.92171,-10.998845 -3.49671,-20.936936 -3.5,-22.084647 -0.005,-1.845731 0.85659,-2.19611 7.4621,-3.033608 l 7.46807,-0.946859 0.51877,2.533607 c 2.71708,13.269928 7.54305,44.66844 7.53532,49.02596 -0.0184,10.370657 -6.46736,19.628718 -16.8873,24.243228 -6.24009,2.76345 -18.97556,3.32045 -25.04936,1.09557 z m 237.42552,-1.13257 c -7.16108,-2.47617 -10.68107,-5.31636 -13.88542,-11.20382 -2.49919,-4.591833 -2.76394,-5.951881 -2.43326,-12.500204 0.3234,-6.404324 0.76433,-7.838698 3.43403,-11.171166 1.68465,-2.102865 4.71981,-4.914348 6.7448,-6.24774 3.64371,-2.399266 3.66229,-2.445827 1.79624,-4.5 C 599.92498,63.041477 599,60.340533 599,54.5 c 0,-6.350015 0.89856,-8.583051 5.34272,-13.277402 C 607.68881,37.688141 614.8847,35 621,35 c 5.15448,0 13.94618,2.774408 17.64763,5.569089 6.32879,4.778378 9.10026,15.311848 5.98834,22.759721 -1.27586,3.053582 -5.93296,7.799348 -8.84902,9.0175 -0.92169,0.385024 -0.73119,0.885068 0.6712,1.761826 11.83416,7.398605 12.24615,24.374559 0.82087,33.823864 -7.13282,5.89921 -19.82358,7.7162 -29.79993,4.26658 z M 625.22978,98.033894 C 633.89323,91.219225 629.4388,78 618.47904,78 c -5.63056,0 -9.24708,2.989347 -10.52619,8.700753 -1.04372,4.660327 -0.20729,7.909127 2.68239,10.418759 3.9574,3.436928 10.83949,3.868108 14.59454,0.914382 z m 3.31567,-35.488439 c 2.41551,-2.415502 3.1683,-6.521868 1.83337,-10.000653 -1.02145,-2.661841 -6.22218,-4.79677 -9.97156,-4.093382 C 616.26109,49.229246 614,52.298911 614,57.149926 c 0,7.160133 9.32267,10.618309 14.54545,5.395529 z M 449.52474,101.62241 c -0.30774,-2.267324 -1.46815,-15.576348 -2.57867,-29.575606 -1.11052,-13.999258 -2.11519,-25.540471 -2.2326,-25.64714 -0.11741,-0.10667 -4.93847,0.149556 -10.71347,0.56939 -5.775,0.419834 -10.71064,0.575407 -10.96809,0.345718 -0.72899,-0.650391 -1.67751,-12.283208 -1.07171,-13.14375 0.29689,-0.421735 1.8898,-0.840951 3.5398,-0.93159 1.65,-0.09064 15.08044,-0.888653 29.84542,-1.773363 14.76498,-0.88471 26.97207,-1.464002 27.12686,-1.287316 0.15479,0.176686 0.59767,3.358747 0.98418,7.071247 0.68608,6.590085 0.64754,6.751684 -1.62687,6.82107 -6.03187,0.184018 -19.9014,1.667411 -20.41774,2.183748 -0.52037,0.520369 2.83927,44.853147 4.08839,53.949032 0.56481,4.11292 0.56357,4.11352 -10.7081,5.12042 l -4.70786,0.42056 z m 48.16117,1.62759 c -0.54014,-0.93748 2.17518,-67.88932 2.88352,-71.099073 l 0.51841,-2.349074 19.70608,0.731787 c 23.40415,0.869115 23.9826,0.909549 24.80706,1.734006 0.83842,0.838421 -0.5566,13.867574 -1.43156,13.370416 C 543.80124,45.428859 537.0875,44.943075 529.25,44.558543 L 515,43.859394 v 8.931012 8.931012 l 5.25,0.630599 c 2.8875,0.346829 8.7375,0.63451 13,0.639291 8.76154,0.0098 8.45351,-0.403095 7.0947,9.510472 L 539.6894,77.282703 526.8447,76.604601 514,75.926499 v 7.890059 c 0,4.339533 -0.28911,10.656071 -0.64246,14.036751 L 512.71509,104 h -7.29853 c -4.01419,0 -7.49298,-0.3375 -7.73065,-0.75 z M 578.5,83.436249 c -0.55,-0.161623 -6.2875,-0.59529 -12.75,-0.963704 L 554,81.802702 V 75.401351 69 l 3.75,0.0052 c 2.0625,0.0028 8.1375,0.295715 13.5,0.650823 l 9.75,0.645649 v 6.29016 c 0,6.148538 -0.47188,7.440428 -2.5,6.844443 z"
       id="path1" />
  </g>
</svg>
