<?xml version="1.0" encoding="UTF-8" standalone="no"?>
<!DOCTYPE svg PUBLIC "-//W3C//DTD SVG 1.1//EN"
 "http://www.w3.org/Graphics/SVG/1.1/DTD/svg11.dtd">
<!-- Generated by graphviz version 14.0.1~dev.20251003.1243 (20251003.1243)
 -->
<!-- Title: DiagramPath Pages: 1 -->
<svg width="748pt" height="129pt"
 viewBox="0.00 0.00 748.00 129.00" xmlns="http://www.w3.org/2000/svg" xmlns:xlink="http://www.w3.org/1999/xlink">
<g id="graph0" class="graph" transform="scale(1 1) rotate(0) translate(21.6 107.32)">
<title>DiagramPath</title>
<polygon fill="#111923" stroke="none" points="-21.6,21.6 -21.6,-107.32 726.31,-107.32 726.31,21.6 -21.6,21.6"/>
<text xml:space="preserve" text-anchor="middle" x="352.35" y="-65.72" font-family="Helvetica,sans-Serif" font-size="20.00" fill="#edf2f5">One figure, two reading sizes</text>
<!-- source -->
<g id="node1" class="node">
<title>source</title>
<path fill="#513d28" stroke="#d4a660" d="M136.73,-51.22C136.73,-51.22 12,-51.22 12,-51.22 6,-51.22 0,-45.22 0,-39.22 0,-39.22 0,-18.5 0,-18.5 0,-12.5 6,-6.5 12,-6.5 12,-6.5 136.73,-6.5 136.73,-6.5 142.73,-6.5 148.73,-12.5 148.73,-18.5 148.73,-18.5 148.73,-39.22 148.73,-39.22 148.73,-45.22 142.73,-51.22 136.73,-51.22"/>
<text xml:space="preserve" text-anchor="middle" x="74.36" y="-31.46" font-family="Helvetica,sans-Serif" font-size="13.00" fill="#f4f5f6">Editable source</text>
<text xml:space="preserve" text-anchor="middle" x="74.36" y="-18.46" font-family="Helvetica,sans-Serif" font-size="13.00" fill="#f4f5f6">Graphviz or Mermaid</text>
</g>
<!-- render -->
<g id="node2" class="node">
<title>render</title>
<path fill="#20303d" stroke="#587080" d="M307.37,-57.72C307.37,-57.72 205.73,-57.72 205.73,-57.72 199.73,-57.72 193.73,-51.72 193.73,-45.72 193.73,-45.72 193.73,-12 193.73,-12 193.73,-6 199.73,0 205.73,0 205.73,0 307.37,0 307.37,0 313.37,0 319.37,-6 319.37,-12 319.37,-12 319.37,-45.72 319.37,-45.72 319.37,-51.72 313.37,-57.72 307.37,-57.72"/>
<text xml:space="preserve" text-anchor="middle" x="256.55" y="-37.96" font-family="Helvetica,sans-Serif" font-size="13.00" fill="#f4f5f6">Rendered assets</text>
<text xml:space="preserve" text-anchor="middle" x="256.55" y="-24.96" font-family="Helvetica,sans-Serif" font-size="13.00" fill="#f4f5f6">SVG for article</text>
<text xml:space="preserve" text-anchor="middle" x="256.55" y="-11.96" font-family="Helvetica,sans-Serif" font-size="13.00" fill="#f4f5f6">PNG retained</text>
</g>
<!-- source&#45;&gt;render -->
<g id="edge1" class="edge">
<title>source&#45;&gt;render</title>
<path fill="none" stroke="#9db1bc" stroke-width="1.5" d="M149.17,-28.86C160.75,-28.86 172.7,-28.86 184.22,-28.86"/>
<polygon fill="#9db1bc" stroke="#9db1bc" stroke-width="1.5" points="184.09,-31.31 191.09,-28.86 184.09,-26.41 184.09,-31.31"/>
</g>
<!-- include -->
<g id="node3" class="node">
<title>include</title>
<path fill="#234243" stroke="#73b8b5" d="M495.34,-57.72C495.34,-57.72 376.37,-57.72 376.37,-57.72 370.37,-57.72 364.37,-51.72 364.37,-45.72 364.37,-45.72 364.37,-12 364.37,-12 364.37,-6 370.37,0 376.37,0 376.37,0 495.34,0 495.34,0 501.34,0 507.34,-6 507.34,-12 507.34,-12 507.34,-45.72 507.34,-45.72 507.34,-51.72 501.34,-57.72 495.34,-57.72"/>
<text xml:space="preserve" text-anchor="middle" x="435.86" y="-37.96" font-family="Helvetica,sans-Serif" font-size="13.00" fill="#f4f5f6">blog_diagram.html</text>
<text xml:space="preserve" text-anchor="middle" x="435.86" y="-24.96" font-family="Helvetica,sans-Serif" font-size="13.00" fill="#f4f5f6">alt text + caption</text>
<text xml:space="preserve" text-anchor="middle" x="435.86" y="-11.96" font-family="Helvetica,sans-Serif" font-size="13.00" fill="#f4f5f6">constrained preview</text>
</g>
<!-- render&#45;&gt;include -->
<g id="edge2" class="edge">
<title>render&#45;&gt;include</title>
<path fill="none" stroke="#9db1bc" stroke-width="1.5" d="M319.56,-28.86C331.02,-28.86 343.14,-28.86 355.03,-28.86"/>
<polygon fill="#9db1bc" stroke="#9db1bc" stroke-width="1.5" points="354.81,-31.31 361.81,-28.86 354.81,-26.41 354.81,-31.31"/>
</g>
<!-- viewer -->
<g id="node4" class="node">
<title>viewer</title>
<path fill="#263958" stroke="#80a6d7" d="M692.71,-57.72C692.71,-57.72 564.34,-57.72 564.34,-57.72 558.34,-57.72 552.34,-51.72 552.34,-45.72 552.34,-45.72 552.34,-12 552.34,-12 552.34,-6 558.34,0 564.34,0 564.34,0 692.71,0 692.71,0 698.71,0 704.71,-6 704.71,-12 704.71,-12 704.71,-45.72 704.71,-45.72 704.71,-51.72 698.71,-57.72 692.71,-57.72"/>
<text xml:space="preserve" text-anchor="middle" x="628.53" y="-37.96" font-family="Helvetica,sans-Serif" font-size="13.00" fill="#f4f5f6">Separate SVG viewer</text>
<text xml:space="preserve" text-anchor="middle" x="628.53" y="-24.96" font-family="Helvetica,sans-Serif" font-size="13.00" fill="#f4f5f6">fit + zoom + pan</text>
<text xml:space="preserve" text-anchor="middle" x="628.53" y="-11.96" font-family="Helvetica,sans-Serif" font-size="13.00" fill="#f4f5f6">Close or Escape</text>
</g>
<!-- include&#45;&gt;viewer -->
<g id="edge3" class="edge">
<title>include&#45;&gt;viewer</title>
<path fill="none" stroke="#9db1bc" stroke-width="1.5" d="M507.58,-28.86C519.15,-28.86 531.24,-28.86 543.1,-28.86"/>
<polygon fill="#9db1bc" stroke="#9db1bc" stroke-width="1.5" points="542.85,-31.31 549.85,-28.86 542.85,-26.41 542.85,-31.31"/>
</g>
</g>
</svg>
