<?xml version="1.0" encoding="UTF-8" standalone="no"?>
<!DOCTYPE svg PUBLIC "-//W3C//DTD SVG 1.1//EN"
 "http://www.w3.org/Graphics/SVG/1.1/DTD/svg11.dtd">
<!-- Generated by graphviz version 14.0.1~dev.20251003.1243 (20251003.1243)
 -->
<!-- Title: preview_path Pages: 1 -->
<svg width="1192pt" height="169pt"
 viewBox="0.00 0.00 1192.00 169.00" xmlns="http://www.w3.org/2000/svg" xmlns:xlink="http://www.w3.org/1999/xlink">
<g id="graph0" class="graph" transform="scale(1 1) rotate(0) translate(21.6 147.88)">
<title>preview_path</title>
<polygon fill="#111827" stroke="none" points="-21.6,21.6 -21.6,-147.88 1170.03,-147.88 1170.03,21.6 -21.6,21.6"/>
<!-- start -->
<g id="node1" class="node">
<title>start</title>
<path fill="#30415a" stroke="#67c5d6" d="M102.6,-83.64C102.6,-83.64 12,-83.64 12,-83.64 6,-83.64 0,-77.64 0,-71.64 0,-71.64 0,-59.64 0,-59.64 0,-53.64 6,-47.64 12,-47.64 12,-47.64 102.6,-47.64 102.6,-47.64 108.6,-47.64 114.6,-53.64 114.6,-59.64 114.6,-59.64 114.6,-71.64 114.6,-71.64 114.6,-77.64 108.6,-83.64 102.6,-83.64"/>
<text xml:space="preserve" text-anchor="middle" x="57.3" y="-61.44" font-family="Helvetica,sans-Serif" font-size="14.00" fill="#f3f4f6">jekyll&#45;site start</text>
</g>
<!-- refresh -->
<g id="node2" class="node">
<title>refresh</title>
<path fill="#1f2937" stroke="#4b5563" d="M328.99,-126.28C328.99,-126.28 221.24,-126.28 221.24,-126.28 215.24,-126.28 209.24,-120.28 209.24,-114.28 209.24,-114.28 209.24,-93 209.24,-93 209.24,-87 215.24,-81 221.24,-81 221.24,-81 328.99,-81 328.99,-81 334.99,-81 340.99,-87 340.99,-93 340.99,-93 340.99,-114.28 340.99,-114.28 340.99,-120.28 334.99,-126.28 328.99,-126.28"/>
<text xml:space="preserve" text-anchor="middle" x="275.11" y="-106.44" font-family="Helvetica,sans-Serif" font-size="14.00" fill="#f3f4f6">Optional project</text>
<text xml:space="preserve" text-anchor="middle" x="275.11" y="-92.44" font-family="Helvetica,sans-Serif" font-size="14.00" fill="#f3f4f6">metadata refresh</text>
</g>
<!-- start&#45;&gt;refresh -->
<g id="edge1" class="edge">
<title>start&#45;&gt;refresh</title>
<path fill="none" stroke="#e5a85c" stroke-width="2" d="M115,-75.62C140.58,-80.13 171.16,-85.51 198.65,-90.35"/>
<polygon fill="#e5a85c" stroke="#e5a85c" stroke-width="2" points="198.19,-92.94 206.03,-91.65 199.1,-87.77 198.19,-92.94"/>
<text xml:space="preserve" text-anchor="middle" x="161.92" y="-89.12" font-family="Helvetica,sans-Serif" font-size="11.00" fill="#d1d5db">unless &#45;n</text>
</g>
<!-- build -->
<g id="node3" class="node">
<title>build</title>
<path fill="#26374a" stroke="#67c5d6" d="M511.76,-81.28C511.76,-81.28 403.99,-81.28 403.99,-81.28 397.99,-81.28 391.99,-75.28 391.99,-69.28 391.99,-69.28 391.99,-48 391.99,-48 391.99,-42 397.99,-36 403.99,-36 403.99,-36 511.76,-36 511.76,-36 517.76,-36 523.76,-42 523.76,-48 523.76,-48 523.76,-69.28 523.76,-69.28 523.76,-75.28 517.76,-81.28 511.76,-81.28"/>
<text xml:space="preserve" text-anchor="middle" x="457.87" y="-61.44" font-family="Helvetica,sans-Serif" font-size="14.00" fill="#f3f4f6">Clean production</text>
<text xml:space="preserve" text-anchor="middle" x="457.87" y="-47.44" font-family="Helvetica,sans-Serif" font-size="14.00" fill="#f3f4f6">Jekyll build</text>
</g>
<!-- start&#45;&gt;build -->
<g id="edge3" class="edge">
<title>start&#45;&gt;build</title>
<path fill="none" stroke="#67c5d6" stroke-width="2" stroke-dasharray="5,2" d="M114.93,-62.26C157.76,-59.71 209.24,-56.64 209.24,-56.64 209.24,-56.64 340.99,-56.64 340.99,-56.64 340.99,-56.64 359.35,-56.96 381.45,-57.34"/>
<polygon fill="#67c5d6" stroke="#67c5d6" stroke-width="2" points="381.25,-59.96 388.79,-57.46 381.34,-54.71 381.25,-59.96"/>
<text xml:space="preserve" text-anchor="middle" x="275.11" y="-58.84" font-family="Helvetica,sans-Serif" font-size="11.00" fill="#d1d5db">with &#45;n</text>
</g>
<!-- refresh&#45;&gt;build -->
<g id="edge2" class="edge">
<title>refresh&#45;&gt;build</title>
<path fill="none" stroke="#e5a85c" stroke-width="2" d="M341.37,-87.39C354.43,-84.14 368.24,-80.7 381.6,-77.38"/>
<polygon fill="#e5a85c" stroke="#e5a85c" stroke-width="2" points="382.13,-79.95 388.77,-75.59 380.86,-74.86 382.13,-79.95"/>
</g>
<!-- index -->
<g id="node4" class="node">
<title>index</title>
<path fill="#1f2937" stroke="#4b5563" d="M681.31,-76.64C681.31,-76.64 586.76,-76.64 586.76,-76.64 580.76,-76.64 574.76,-70.64 574.76,-64.64 574.76,-64.64 574.76,-52.64 574.76,-52.64 574.76,-46.64 580.76,-40.64 586.76,-40.64 586.76,-40.64 681.31,-40.64 681.31,-40.64 687.31,-40.64 693.31,-46.64 693.31,-52.64 693.31,-52.64 693.31,-64.64 693.31,-64.64 693.31,-70.64 687.31,-76.64 681.31,-76.64"/>
<text xml:space="preserve" text-anchor="middle" x="634.03" y="-54.44" font-family="Helvetica,sans-Serif" font-size="14.00" fill="#f3f4f6">Pagefind index</text>
</g>
<!-- build&#45;&gt;index -->
<g id="edge4" class="edge">
<title>build&#45;&gt;index</title>
<path fill="none" stroke="#e5a85c" stroke-width="2" d="M524.22,-58.64C537.24,-58.64 550.96,-58.64 564.1,-58.64"/>
<polygon fill="#e5a85c" stroke="#e5a85c" stroke-width="2" points="563.96,-61.27 571.46,-58.64 563.96,-56.02 563.96,-61.27"/>
</g>
<!-- serve -->
<g id="node5" class="node">
<title>serve</title>
<path fill="#3a3440" stroke="#e5a85c" d="M840.71,-81.28C840.71,-81.28 756.31,-81.28 756.31,-81.28 750.31,-81.28 744.31,-75.28 744.31,-69.28 744.31,-69.28 744.31,-48 744.31,-48 744.31,-42 750.31,-36 756.31,-36 756.31,-36 840.71,-36 840.71,-36 846.71,-36 852.71,-42 852.71,-48 852.71,-48 852.71,-69.28 852.71,-69.28 852.71,-75.28 846.71,-81.28 840.71,-81.28"/>
<text xml:space="preserve" text-anchor="middle" x="798.51" y="-61.44" font-family="Helvetica,sans-Serif" font-size="14.00" fill="#f3f4f6">Development</text>
<text xml:space="preserve" text-anchor="middle" x="798.51" y="-47.44" font-family="Helvetica,sans-Serif" font-size="14.00" fill="#f3f4f6">Jekyll server</text>
</g>
<!-- index&#45;&gt;serve -->
<g id="edge5" class="edge">
<title>index&#45;&gt;serve</title>
<path fill="none" stroke="#e5a85c" stroke-width="2" d="M693.69,-58.64C706.67,-58.64 720.49,-58.64 733.67,-58.64"/>
<polygon fill="#e5a85c" stroke="#e5a85c" stroke-width="2" points="733.54,-61.27 741.04,-58.64 733.54,-56.02 733.54,-61.27"/>
</g>
<!-- review -->
<g id="node6" class="node">
<title>review</title>
<path fill="#1f2937" stroke="#4b5563" d="M1136.43,-117.28C1136.43,-117.28 956.28,-117.28 956.28,-117.28 950.28,-117.28 944.28,-111.28 944.28,-105.28 944.28,-105.28 944.28,-84 944.28,-84 944.28,-78 950.28,-72 956.28,-72 956.28,-72 1136.43,-72 1136.43,-72 1142.43,-72 1148.43,-78 1148.43,-84 1148.43,-84 1148.43,-105.28 1148.43,-105.28 1148.43,-111.28 1142.43,-117.28 1136.43,-117.28"/>
<text xml:space="preserve" text-anchor="middle" x="1046.35" y="-97.44" font-family="Helvetica,sans-Serif" font-size="14.00" fill="#f3f4f6">Review view</text>
<text xml:space="preserve" text-anchor="middle" x="1046.35" y="-83.44" font-family="Helvetica,sans-Serif" font-size="14.00" fill="#f3f4f6">future + drafts + unpublished</text>
</g>
<!-- serve&#45;&gt;review -->
<g id="edge6" class="edge">
<title>serve&#45;&gt;review</title>
<path fill="none" stroke="#e5a85c" stroke-width="2" d="M853.16,-66.5C876.94,-69.98 905.86,-74.21 933.96,-78.33"/>
<polygon fill="#e5a85c" stroke="#e5a85c" stroke-width="2" points="933.48,-80.91 941.28,-79.4 934.24,-75.72 933.48,-80.91"/>
<text xml:space="preserve" text-anchor="middle" x="898.5" y="-77.76" font-family="Helvetica,sans-Serif" font-size="11.00" fill="#d1d5db">default</text>
</g>
<!-- current -->
<g id="node7" class="node">
<title>current</title>
<path fill="#1f2937" stroke="#4b5563" d="M1115.41,-45.28C1115.41,-45.28 977.3,-45.28 977.3,-45.28 971.3,-45.28 965.3,-39.28 965.3,-33.28 965.3,-33.28 965.3,-12 965.3,-12 965.3,-6 971.3,0 977.3,0 977.3,0 1115.41,0 1115.41,0 1121.41,0 1127.41,-6 1127.41,-12 1127.41,-12 1127.41,-33.28 1127.41,-33.28 1127.41,-39.28 1121.41,-45.28 1115.41,-45.28"/>
<text xml:space="preserve" text-anchor="middle" x="1046.35" y="-25.44" font-family="Helvetica,sans-Serif" font-size="14.00" fill="#f3f4f6">Current&#45;content view</text>
<text xml:space="preserve" text-anchor="middle" x="1046.35" y="-11.44" font-family="Helvetica,sans-Serif" font-size="14.00" fill="#f3f4f6">without inclusion flags</text>
</g>
<!-- serve&#45;&gt;current -->
<g id="edge7" class="edge">
<title>serve&#45;&gt;current</title>
<path fill="none" stroke="#e5a85c" stroke-width="2" d="M853.16,-50.78C882.99,-46.42 920.91,-40.86 955.16,-35.85"/>
<polygon fill="#e5a85c" stroke="#e5a85c" stroke-width="2" points="955.15,-38.5 962.19,-34.82 954.39,-33.31 955.15,-38.5"/>
<text xml:space="preserve" text-anchor="middle" x="898.5" y="-49.2" font-family="Helvetica,sans-Serif" font-size="11.00" fill="#d1d5db">&#45;&#45;current</text>
</g>
</g>
</svg>
