<?xml version="1.0" encoding="UTF-8" standalone="no"?>
<!DOCTYPE svg PUBLIC "-//W3C//DTD SVG 1.1//EN"
 "http://www.w3.org/Graphics/SVG/1.1/DTD/svg11.dtd">
<!-- Generated by graphviz version 14.0.1~dev.20251003.1243 (20251003.1243)
 -->
<!-- Title: PublishingPaths Pages: 1 -->
<svg width="513pt" height="424pt"
 viewBox="0.00 0.00 513.00 424.00" xmlns="http://www.w3.org/2000/svg" xmlns:xlink="http://www.w3.org/1999/xlink">
<g id="graph0" class="graph" transform="scale(1 1) rotate(0) translate(21.6 402.72)">
<title>PublishingPaths</title>
<polygon fill="#111923" stroke="none" points="-21.6,21.6 -21.6,-402.72 491.76,-402.72 491.76,21.6 -21.6,21.6"/>
<text xml:space="preserve" text-anchor="middle" x="235.08" y="-361.12" font-family="Helvetica,sans-Serif" font-size="20.00" fill="#e8edf2">Two authored lists, several reader routes</text>
<!-- repos -->
<g id="node1" class="node">
<title>repos</title>
<path fill="#4d3a25" stroke="#d4a660" d="M159.23,-353.12C159.23,-353.12 63.37,-353.12 63.37,-353.12 57.37,-353.12 51.37,-347.12 51.37,-341.12 51.37,-341.12 51.37,-321.84 51.37,-321.84 51.37,-315.84 57.37,-309.84 63.37,-309.84 63.37,-309.84 159.23,-309.84 159.23,-309.84 165.23,-309.84 171.23,-315.84 171.23,-321.84 171.23,-321.84 171.23,-341.12 171.23,-341.12 171.23,-347.12 165.23,-353.12 159.23,-353.12"/>
<text xml:space="preserve" text-anchor="middle" x="111.3" y="-334.08" font-family="Helvetica,sans-Serif" font-size="13.00" fill="#f1f3f4">repos.yml</text>
<text xml:space="preserve" text-anchor="middle" x="111.3" y="-321.08" font-family="Helvetica,sans-Serif" font-size="13.00" fill="#f1f3f4">ordered projects</text>
</g>
<!-- generator -->
<g id="node2" class="node">
<title>generator</title>
<path fill="#1e2b38" stroke="#536475" d="M210.6,-262.84C210.6,-262.84 12,-262.84 12,-262.84 6,-262.84 0,-256.84 0,-250.84 0,-250.84 0,-218.56 0,-218.56 0,-212.56 6,-206.56 12,-206.56 12,-206.56 210.6,-206.56 210.6,-206.56 216.6,-206.56 222.6,-212.56 222.6,-218.56 222.6,-218.56 222.6,-250.84 222.6,-250.84 222.6,-256.84 216.6,-262.84 210.6,-262.84"/>
<text xml:space="preserve" text-anchor="middle" x="111.3" y="-243.8" font-family="Helvetica,sans-Serif" font-size="13.00" fill="#f1f3f4">fetch_og.py</text>
<text xml:space="preserve" text-anchor="middle" x="111.3" y="-230.8" font-family="Helvetica,sans-Serif" font-size="13.00" fill="#f1f3f4">metadata + overrides</text>
<text xml:space="preserve" text-anchor="middle" x="111.3" y="-217.8" font-family="Helvetica,sans-Serif" font-size="13.00" fill="#f1f3f4">local cards + first&#45;page scaffolding</text>
</g>
<!-- repos&#45;&gt;generator -->
<g id="edge1" class="edge">
<title>repos&#45;&gt;generator</title>
<path fill="none" stroke="#91aab9" stroke-width="1.4" d="M111.3,-309.45C111.3,-298.47 111.3,-284.74 111.3,-272.11"/>
<polygon fill="#91aab9" stroke="#91aab9" stroke-width="1.4" points="113.75,-272.28 111.3,-265.28 108.85,-272.28 113.75,-272.28"/>
</g>
<!-- generated -->
<g id="node3" class="node">
<title>generated</title>
<path fill="#1e2b38" stroke="#536475" d="M177.31,-159.56C177.31,-159.56 45.29,-159.56 45.29,-159.56 39.29,-159.56 33.29,-153.56 33.29,-147.56 33.29,-147.56 33.29,-128.28 33.29,-128.28 33.29,-122.28 39.29,-116.28 45.29,-116.28 45.29,-116.28 177.31,-116.28 177.31,-116.28 183.31,-116.28 189.31,-122.28 189.31,-128.28 189.31,-128.28 189.31,-147.56 189.31,-147.56 189.31,-153.56 183.31,-159.56 177.31,-159.56"/>
<text xml:space="preserve" text-anchor="middle" x="111.3" y="-140.52" font-family="Helvetica,sans-Serif" font-size="13.00" fill="#f1f3f4">github_projects.yml</text>
<text xml:space="preserve" text-anchor="middle" x="111.3" y="-127.52" font-family="Helvetica,sans-Serif" font-size="13.00" fill="#f1f3f4">generated project data</text>
</g>
<!-- generator&#45;&gt;generated -->
<g id="edge2" class="edge">
<title>generator&#45;&gt;generated</title>
<path fill="none" stroke="#91aab9" stroke-width="1.4" d="M111.3,-206.29C111.3,-194.52 111.3,-180.75 111.3,-168.73"/>
<polygon fill="#91aab9" stroke="#91aab9" stroke-width="1.4" points="113.75,-169.07 111.3,-162.07 108.85,-169.07 113.75,-169.07"/>
</g>
<!-- projectviews -->
<g id="node4" class="node">
<title>projectviews</title>
<path fill="#1e2b38" stroke="#536475" d="M174.23,-56.28C174.23,-56.28 48.36,-56.28 48.36,-56.28 42.36,-56.28 36.36,-50.28 36.36,-44.28 36.36,-44.28 36.36,-12 36.36,-12 36.36,-6 42.36,0 48.36,0 48.36,0 174.23,0 174.23,0 180.23,0 186.23,-6 186.23,-12 186.23,-12 186.23,-44.28 186.23,-44.28 186.23,-50.28 180.23,-56.28 174.23,-56.28"/>
<text xml:space="preserve" text-anchor="middle" x="111.3" y="-37.24" font-family="Helvetica,sans-Serif" font-size="13.00" fill="#f1f3f4">Projects dropdown</text>
<text xml:space="preserve" text-anchor="middle" x="111.3" y="-24.24" font-family="Helvetica,sans-Serif" font-size="13.00" fill="#f1f3f4">Projects page groups</text>
<text xml:space="preserve" text-anchor="middle" x="111.3" y="-11.24" font-family="Helvetica,sans-Serif" font-size="13.00" fill="#f1f3f4">project landing + blog</text>
</g>
<!-- generated&#45;&gt;projectviews -->
<g id="edge3" class="edge">
<title>generated&#45;&gt;projectviews</title>
<path fill="none" stroke="#91aab9" stroke-width="1.4" d="M111.3,-115.88C111.3,-101.62 111.3,-82.38 111.3,-65.65"/>
<polygon fill="#91aab9" stroke="#91aab9" stroke-width="1.4" points="113.75,-65.78 111.3,-58.78 108.85,-65.78 113.75,-65.78"/>
</g>
<!-- discovery -->
<g id="node8" class="node">
<title>discovery</title>
<path fill="#1e2b38" stroke="#536475" d="M384.45,-56.28C384.45,-56.28 248.14,-56.28 248.14,-56.28 242.14,-56.28 236.14,-50.28 236.14,-44.28 236.14,-44.28 236.14,-12 236.14,-12 236.14,-6 242.14,0 248.14,0 248.14,0 384.45,0 384.45,0 390.45,0 396.45,-6 396.45,-12 396.45,-12 396.45,-44.28 396.45,-44.28 396.45,-50.28 390.45,-56.28 384.45,-56.28"/>
<text xml:space="preserve" text-anchor="middle" x="316.3" y="-37.24" font-family="Helvetica,sans-Serif" font-size="13.00" fill="#f1f3f4">series reading order</text>
<text xml:space="preserve" text-anchor="middle" x="316.3" y="-24.24" font-family="Helvetica,sans-Serif" font-size="13.00" fill="#f1f3f4">archive discovery order</text>
<text xml:space="preserve" text-anchor="middle" x="316.3" y="-11.24" font-family="Helvetica,sans-Serif" font-size="13.00" fill="#f1f3f4">project update lists</text>
</g>
<!-- generated&#45;&gt;discovery -->
<g id="edge6" class="edge">
<title>generated&#45;&gt;discovery</title>
<path fill="none" stroke="#91aab9" stroke-width="1.4" stroke-dasharray="5,2" d="M129.38,-115.93C140.74,-103.83 156.26,-89.12 172.47,-79.28 189.41,-69 208.75,-60.44 227.63,-53.48"/>
<polygon fill="#91aab9" stroke="#91aab9" stroke-width="1.4" points="228.22,-55.87 233.99,-51.21 226.57,-51.26 228.22,-55.87"/>
<text xml:space="preserve" text-anchor="middle" x="247.39" y="-82.08" font-family="Times,serif" font-size="14.00" fill="#b2c5ce">visibility + project identity</text>
</g>
<!-- sections -->
<g id="node5" class="node">
<title>sections</title>
<path fill="#214446" stroke="#6db7b2" d="M393.18,-353.12C393.18,-353.12 255.41,-353.12 255.41,-353.12 249.41,-353.12 243.41,-347.12 243.41,-341.12 243.41,-341.12 243.41,-321.84 243.41,-321.84 243.41,-315.84 249.41,-309.84 255.41,-309.84 255.41,-309.84 393.18,-309.84 393.18,-309.84 399.18,-309.84 405.18,-315.84 405.18,-321.84 405.18,-321.84 405.18,-341.12 405.18,-341.12 405.18,-347.12 399.18,-353.12 393.18,-353.12"/>
<text xml:space="preserve" text-anchor="middle" x="324.3" y="-334.08" font-family="Helvetica,sans-Serif" font-size="13.00" fill="#f1f3f4">blog_sections.yml</text>
<text xml:space="preserve" text-anchor="middle" x="324.3" y="-321.08" font-family="Helvetica,sans-Serif" font-size="13.00" fill="#f1f3f4">ordered visible sections</text>
</g>
<!-- blogviews -->
<g id="node6" class="node">
<title>blogviews</title>
<path fill="#1e2b38" stroke="#536475" d="M389.39,-256.34C389.39,-256.34 259.2,-256.34 259.2,-256.34 253.2,-256.34 247.2,-250.34 247.2,-244.34 247.2,-244.34 247.2,-225.06 247.2,-225.06 247.2,-219.06 253.2,-213.06 259.2,-213.06 259.2,-213.06 389.39,-213.06 389.39,-213.06 395.39,-213.06 401.39,-219.06 401.39,-225.06 401.39,-225.06 401.39,-244.34 401.39,-244.34 401.39,-250.34 395.39,-256.34 389.39,-256.34"/>
<text xml:space="preserve" text-anchor="middle" x="324.3" y="-237.3" font-family="Helvetica,sans-Serif" font-size="13.00" fill="#f1f3f4">Blog dropdown</text>
<text xml:space="preserve" text-anchor="middle" x="324.3" y="-224.3" font-family="Helvetica,sans-Serif" font-size="13.00" fill="#f1f3f4">Blog hub + recent lists</text>
</g>
<!-- sections&#45;&gt;blogviews -->
<g id="edge4" class="edge">
<title>sections&#45;&gt;blogviews</title>
<path fill="none" stroke="#91aab9" stroke-width="1.4" d="M324.3,-309.45C324.3,-296.56 324.3,-279.87 324.3,-265.62"/>
<polygon fill="#91aab9" stroke="#91aab9" stroke-width="1.4" points="326.75,-265.79 324.3,-258.79 321.85,-265.79 326.75,-265.79"/>
</g>
<!-- frontmatter -->
<g id="node7" class="node">
<title>frontmatter</title>
<path fill="#263853" stroke="#536475" d="M458.16,-159.56C458.16,-159.56 226.43,-159.56 226.43,-159.56 220.43,-159.56 214.43,-153.56 214.43,-147.56 214.43,-147.56 214.43,-128.28 214.43,-128.28 214.43,-122.28 220.43,-116.28 226.43,-116.28 226.43,-116.28 458.16,-116.28 458.16,-116.28 464.16,-116.28 470.16,-122.28 470.16,-128.28 470.16,-128.28 470.16,-147.56 470.16,-147.56 470.16,-153.56 464.16,-159.56 458.16,-159.56"/>
<text xml:space="preserve" text-anchor="middle" x="342.3" y="-140.52" font-family="Helvetica,sans-Serif" font-size="13.00" fill="#f1f3f4">post front matter</text>
<text xml:space="preserve" text-anchor="middle" x="342.3" y="-127.52" font-family="Helvetica,sans-Serif" font-size="13.00" fill="#f1f3f4">category + series_order + update notice</text>
</g>
<!-- frontmatter&#45;&gt;discovery -->
<g id="edge5" class="edge">
<title>frontmatter&#45;&gt;discovery</title>
<path fill="none" stroke="#91aab9" stroke-width="1.4" d="M337.22,-115.88C333.75,-101.48 329.06,-82.03 324.99,-65.19"/>
<polygon fill="#91aab9" stroke="#91aab9" stroke-width="1.4" points="327.46,-64.95 323.43,-58.72 322.69,-66.1 327.46,-64.95"/>
</g>
</g>
</svg>
